<svg width="40" height="41" viewBox="0 0 40 41" fill="none" xmlns="http://www.w3.org/2000/svg">
<g id="icon/nav/arrow right">
<path id="Vector" d="M10.373 35.4736C10.2579 35.5822 10.1655 35.7131 10.1015 35.8586C10.0374 36.0041 10.003 36.1611 10.0002 36.3204C9.99741 36.4796 10.0264 36.6378 10.0853 36.7855C10.1443 36.9332 10.232 37.0673 10.3433 37.18C10.4546 37.2926 10.5872 37.3814 10.7331 37.441C10.8791 37.5007 11.0354 37.53 11.1927 37.5272C11.3501 37.5243 11.5053 37.4895 11.6491 37.4247C11.7929 37.3598 11.9223 37.2664 12.0296 37.1499L27.6572 21.3359C27.8767 21.1135 28 20.8121 28 20.4978C28 20.1835 27.8767 19.882 27.6572 19.6596L12.0296 3.84567C11.8074 3.63616 11.5135 3.52211 11.2099 3.52753C10.9062 3.53295 10.6165 3.65742 10.4018 3.87473C10.187 4.09203 10.064 4.3852 10.0587 4.69247C10.0533 4.99973 10.166 5.29711 10.373 5.52194L25.1705 20.4978L10.373 35.4736Z" fill="#986B3E"/>
</g>
</svg>
