<svg width="40" height="41" viewBox="0 0 40 41" fill="none" xmlns="http://www.w3.org/2000/svg">
<g id="icon/nav/arrow left">
<path id="Vector" d="M27.627 35.4736C27.7421 35.5822 27.8345 35.7131 27.8985 35.8586C27.9626 36.0041 27.997 36.1611 27.9998 36.3204C28.0026 36.4796 27.9736 36.6378 27.9147 36.7855C27.8557 36.9332 27.768 37.0673 27.6567 37.18C27.5454 37.2926 27.4128 37.3814 27.2669 37.441C27.1209 37.5007 26.9646 37.53 26.8073 37.5272C26.6499 37.5243 26.4947 37.4895 26.3509 37.4247C26.2071 37.3598 26.0777 37.2664 25.9704 37.1499L10.3428 21.3359C10.1233 21.1135 10 20.8121 10 20.4978C10 20.1835 10.1233 19.882 10.3428 19.6596L25.9704 3.84567C26.1926 3.63616 26.4865 3.52211 26.7901 3.52753C27.0938 3.53295 27.3835 3.65742 27.5982 3.87473C27.813 4.09203 27.936 4.3852 27.9413 4.69247C27.9467 4.99973 27.834 5.29711 27.627 5.52194L12.8295 20.4978L27.627 35.4736Z" fill="#986B3E"/>
</g>
</svg>
