<svg width="24" height="25" viewBox="0 0 24 25" fill="none" xmlns="http://www.w3.org/2000/svg">
<g id="BatteryChargingVertical" clip-path="url(#clip0_596_349)">
<path id="Vector" opacity="0.5" d="M14.1384 12.8827C14.2058 12.9915 14.2441 13.1157 14.2498 13.2435C14.2556 13.3714 14.2285 13.4985 14.1713 13.613L12.6713 16.613C12.5822 16.791 12.4261 16.9264 12.2373 16.9893C12.0485 17.0523 11.8424 17.0376 11.6644 16.9486C11.4863 16.8596 11.351 16.7035 11.288 16.5147C11.2251 16.3258 11.2397 16.1197 11.3287 15.9417L12.2869 14.0273H10.5C10.3721 14.0274 10.2463 13.9948 10.1345 13.9326C10.0228 13.8703 9.92882 13.7806 9.86155 13.6718C9.79429 13.563 9.75596 13.4388 9.75022 13.311C9.74448 13.1832 9.77151 13.0561 9.82875 12.9417L11.3287 9.94172C11.4178 9.76369 11.5739 9.62832 11.7627 9.56538C11.9515 9.50243 12.1576 9.51708 12.3356 9.60609C12.5137 9.69511 12.649 9.8512 12.712 10.04C12.7749 10.2288 12.7603 10.4349 12.6713 10.613L11.7131 12.5273H13.5C13.6279 12.5272 13.7537 12.5598 13.8654 12.622C13.9772 12.6842 14.0711 12.7739 14.1384 12.8827ZM9 2.02734H15C15.1989 2.02734 15.3897 1.94833 15.5303 1.80767C15.671 1.66702 15.75 1.47626 15.75 1.27734C15.75 1.07843 15.671 0.887666 15.5303 0.747014C15.3897 0.606361 15.1989 0.527344 15 0.527344H9C8.80109 0.527344 8.61032 0.606361 8.46967 0.747014C8.32902 0.887666 8.25 1.07843 8.25 1.27734C8.25 1.47626 8.32902 1.66702 8.46967 1.80767C8.61032 1.94833 8.80109 2.02734 9 2.02734ZM18.75 5.77734V21.5273C18.75 22.1241 18.5129 22.6964 18.091 23.1183C17.669 23.5403 17.0967 23.7773 16.5 23.7773H7.5C6.90326 23.7773 6.33097 23.5403 5.90901 23.1183C5.48705 22.6964 5.25 22.1241 5.25 21.5273V5.77734C5.25 5.18061 5.48705 4.60831 5.90901 4.18635C6.33097 3.7644 6.90326 3.52734 7.5 3.52734H16.5C17.0967 3.52734 17.669 3.7644 18.091 4.18635C18.5129 4.60831 18.75 5.18061 18.75 5.77734ZM17.25 5.77734C17.25 5.57843 17.171 5.38767 17.0303 5.24701C16.8897 5.10636 16.6989 5.02734 16.5 5.02734H7.5C7.30109 5.02734 7.11032 5.10636 6.96967 5.24701C6.82902 5.38767 6.75 5.57843 6.75 5.77734V21.5273C6.75 21.7263 6.82902 21.917 6.96967 22.0577C7.11032 22.1983 7.30109 22.2773 7.5 22.2773H16.5C16.6989 22.2773 16.8897 22.1983 17.0303 22.0577C17.171 21.917 17.25 21.7263 17.25 21.5273V5.77734Z" fill="#986B3E"/>
</g>
<defs>
<clipPath id="clip0_596_349">
<rect width="24" height="24" fill="white" transform="translate(0 0.527344)"/>
</clipPath>
</defs>
</svg>
