<svg width="16" height="16" viewBox="0 0 16 16" fill="none" xmlns="http://www.w3.org/2000/svg">
<g id="CaretDown">
<path id="Vector" d="M13.4946 6.47874L13.4936 6.47926L13.4864 6.48643L8.4864 11.4864L8.48633 11.4865C8.42246 11.5506 8.34656 11.6015 8.26299 11.6362C8.17943 11.6709 8.08983 11.6887 7.99935 11.6887C7.90886 11.6887 7.81927 11.6709 7.7357 11.6362C7.65213 11.6015 7.57624 11.5506 7.51237 11.4865L7.51229 11.4864L2.51229 6.48643C2.38312 6.35726 2.31055 6.18206 2.31055 5.99938C2.31055 5.8167 2.38312 5.6415 2.51229 5.51232C2.64147 5.38315 2.81667 5.31058 2.99935 5.31058C3.18203 5.31058 3.35723 5.38315 3.4864 5.51232L7.95578 9.9817L7.99998 10.0259L8.04417 9.98169L12.5135 5.51169C12.6427 5.38252 12.8179 5.30995 13.0006 5.30995C13.1833 5.30995 13.3585 5.38252 13.4877 5.5117C13.6168 5.64087 13.6894 5.81607 13.6894 5.99875C13.6894 6.17812 13.6194 6.35028 13.4946 6.47874Z" fill="#986B3E" stroke="#986B3E" stroke-width="0.125"/>
</g>
</svg>
