<svg width="91" height="21" viewBox="0 0 91 21" fill="none" xmlns="http://www.w3.org/2000/svg">
<g id="Frame 155">
<g id="Group">
<path id="Vector" d="M84.9482 3.26467C85.0067 3.17643 85.0944 3.05878 85.1528 2.97055C85.182 2.94114 85.182 2.91172 85.2113 2.88231C85.2697 2.82349 85.2989 2.76467 85.3574 2.70584C85.3866 2.67643 85.3866 2.64702 85.4158 2.64702C85.4743 2.5882 85.5327 2.52937 85.562 2.47055C85.5912 2.44114 85.5912 2.44114 85.6204 2.41172C85.6789 2.3529 85.7373 2.29408 85.7958 2.23525C85.825 2.20584 85.825 2.20584 85.8542 2.17643C85.9127 2.11761 85.9711 2.05878 86.0296 1.99996L86.0588 1.97055C86.1173 1.91172 86.1757 1.8529 86.2634 1.79408L86.2926 1.76467C86.3511 1.70584 86.4387 1.64702 86.4972 1.61761C86.4972 1.61761 86.5264 1.61761 86.5264 1.5882C86.5849 1.52937 86.6725 1.49996 86.731 1.44114C88.6014 0.205843 90.5303 0.264666 90.5887 0.264666C90.5595 0.264666 90.5303 0.264666 90.5011 0.235254C89.2736 -3.98252e-05 87.9877 -0.0588634 86.7602 0.117607C86.731 0.117607 86.7018 0.117607 86.6725 0.117607C86.5556 0.147019 86.4095 0.147019 86.2926 0.176431C86.2049 0.205843 86.088 0.205843 86.0004 0.235254C85.1236 0.441137 83.7792 0.882313 82.9317 1.94114L73.1412 15.4117C73.1412 15.4117 72.5859 16.1764 71.7092 16.9411C71.6799 16.9705 71.6799 16.9705 71.6507 17C71.563 17.0588 71.4754 17.1176 71.4169 17.1764C70.6863 17.7353 69.8095 18.2353 68.8158 18.3235C67.7053 18.5294 66.5655 18.4411 65.3673 18.0882C63.3507 17.5 62.1232 16.2353 61.188 14.9117L53.6479 4.05878C51.7482 1.47055 48.9134 0.0587837 45.8447 0.0293719C45.6694 0.0293719 45.5232 0.0293719 45.3479 0.0587837C42.7761 0.176431 40.3796 1.29408 38.6261 3.29408C38.5968 3.32349 38.5676 3.38231 38.5384 3.41172L28.2511 17.7353C27.4327 18.8529 26.3514 19.6176 25.387 20.0294C24.4518 20.4117 23.5458 20.5882 22.8736 20.647V20.6764C24.8609 20.647 29.537 20.2647 31.2613 17.8529L40.1458 5.38231C40.4088 5.02937 40.6718 4.70584 40.9349 4.41172C42.3085 2.97055 43.9743 2.23525 45.6986 2.20584C45.757 2.20584 45.7863 2.20584 45.8447 2.20584C47.9197 2.20584 49.907 3.20584 51.4852 5.14702L59.1715 16.3235C61.1004 19.1176 64.1106 20.7353 67.413 20.7353H67.4423C70.7155 20.7353 73.7257 19.147 75.6546 16.3823L84.9482 3.26467Z" fill="#986B3E"/>
<path id="Vector_2" d="M57.4472 5.52937C58.3824 4.23525 59.1131 3.20584 59.4638 2.70584C61.0712 0.470548 64.6659 0.147018 64.6659 0.147018C58.324 -0.705923 56.775 2.29408 56.775 2.29408C56.775 2.29408 56.4535 2.73525 55.9275 3.47055C56.1028 3.67643 56.249 3.88231 56.4243 4.08819C56.7458 4.55878 57.0965 5.05878 57.4472 5.52937Z" fill="#986B3E"/>
<path id="Vector_3" d="M63.6137 14.4411C66.3901 10.5882 70.9493 4.23525 72.0598 2.70584C73.6672 0.470548 77.262 0.147018 77.262 0.147018C70.92 -0.705923 69.3711 2.29408 69.3711 2.29408C69.3711 2.29408 65.3965 7.73525 62.094 12.2647C62.5908 13 63.0877 13.7058 63.6137 14.4411Z" fill="#986B3E"/>
<path id="Vector_4" d="M37.6616 17.9411C37.3109 17.4411 36.5511 16.4117 35.6451 15.1176C35.2944 15.5882 34.9729 16.0882 34.6222 16.5588C34.4761 16.7647 34.3007 16.9705 34.1254 17.1764C34.6514 17.9117 34.9729 18.3529 34.9729 18.3529C34.9729 18.3529 36.5218 21.3529 42.8637 20.5C42.8637 20.5 39.269 20.147 37.6616 17.9411Z" fill="#986B3E"/>
<path id="Vector_5" d="M50.2285 17.9411C49.1179 16.4117 44.5588 10.0588 41.7824 6.20584C41.2855 6.94114 40.7887 7.64702 40.2919 8.38231C43.5943 12.9117 47.5398 18.3529 47.5398 18.3529C47.5398 18.3529 49.0887 21.3529 55.4306 20.5C55.4306 20.5 51.8359 20.147 50.2285 17.9411Z" fill="#986B3E"/>
<path id="Vector_6" d="M25.2408 0.147018C18.8989 -0.705923 17.35 2.29408 17.35 2.29408C17.35 2.29408 8.55317 14.4117 6.24437 17.5882C4.16937 20.4411 0.896127 20.6764 0.75 20.7058C1.15915 20.7058 1.68521 20.7058 2.41585 20.7058C7.23803 20.7058 9.45915 17.4705 9.45915 17.4705C9.45915 17.4705 18.4313 4.97055 20.068 2.73525C21.7046 0.49996 25.2408 0.147018 25.2408 0.147018Z" fill="#986B3E"/>
<path id="Vector_7" d="M36.5803 0.147018C30.2384 -0.705923 28.6894 2.29408 28.6894 2.29408C28.6894 2.29408 19.8926 14.3823 17.5838 17.5588C15.5088 20.4117 12.2355 20.647 12.0894 20.6764C12.4986 20.6764 13.0246 20.6764 13.7553 20.6764C18.5774 20.6764 20.7986 17.4411 20.7986 17.4411C20.7986 17.4411 29.7415 4.94113 31.3782 2.70584C32.9855 0.499959 36.5803 0.147018 36.5803 0.147018Z" fill="#986B3E"/>
</g>
</g>
</svg>
