<svg width="60" height="22" viewBox="0 0 60 22" fill="none" xmlns="http://www.w3.org/2000/svg">
<g id="Frame 144">
<path id="Vector" d="M24.4908 0.679977C18.1489 -0.172964 16.6 2.82704 16.6 2.82704C16.6 2.82704 7.80317 14.9447 5.49437 18.1212C3.41937 20.9741 0.146127 21.2094 0 21.2388C0.409155 21.2388 0.935211 21.2388 1.66585 21.2388C6.48803 21.2388 8.70915 18.0035 8.70915 18.0035C8.70915 18.0035 17.6813 5.50351 19.318 3.26821C20.9546 1.03292 24.4908 0.679977 24.4908 0.679977Z" fill="#986B3E"/>
<path id="Vector_2" opacity="0.5" d="M35.4908 0.679977C29.1489 -0.172964 27.6 2.82704 27.6 2.82704C27.6 2.82704 18.8032 14.9153 16.4944 18.0917C14.4194 20.9447 11.1461 21.18 11 21.2094C11.4092 21.2094 11.9352 21.2094 12.6658 21.2094C17.488 21.2094 19.7092 17.9741 19.7092 17.9741C19.7092 17.9741 28.6521 5.47409 30.2887 3.2388C31.8961 1.03292 35.4908 0.679977 35.4908 0.679977Z" fill="#986B3E"/>
<path id="Vector_3" opacity="0.5" d="M46.4908 0.679977C40.1489 -0.172964 38.6 2.82704 38.6 2.82704C38.6 2.82704 29.8032 14.9153 27.4944 18.0917C25.4194 20.9447 22.1461 21.18 22 21.2094C22.4092 21.2094 22.9352 21.2094 23.6658 21.2094C28.488 21.2094 30.7092 17.9741 30.7092 17.9741C30.7092 17.9741 39.6521 5.47409 41.2887 3.2388C42.8961 1.03292 46.4908 0.679977 46.4908 0.679977Z" fill="#986B3E"/>
<path id="Vector_4" opacity="0.5" d="M57.4908 0.679977C51.1489 -0.172964 49.6 2.82704 49.6 2.82704C49.6 2.82704 40.8032 14.9153 38.4944 18.0917C36.4194 20.9447 33.1461 21.18 33 21.2094C33.4092 21.2094 33.9352 21.2094 34.6658 21.2094C39.488 21.2094 41.7092 17.9741 41.7092 17.9741C41.7092 17.9741 50.6521 5.47409 52.2887 3.2388C53.8961 1.03292 57.4908 0.679977 57.4908 0.679977Z" fill="#986B3E"/>
</g>
</svg>
