<svg width="228" height="54" viewBox="0 0 228 54" fill="none" xmlns="http://www.w3.org/2000/svg">
<g id="Group">
<path id="Vector" d="M213.685 8.88409C213.833 8.65861 214.056 8.35799 214.204 8.13251C214.278 8.05736 214.278 7.9822 214.353 7.90704C214.501 7.75673 214.575 7.60641 214.723 7.4561C214.798 7.38094 214.798 7.30579 214.872 7.30579C215.02 7.15547 215.168 7.00516 215.243 6.85484C215.317 6.77969 215.317 6.77969 215.391 6.70453C215.539 6.55422 215.688 6.4039 215.836 6.25359C215.91 6.17843 215.91 6.17843 215.984 6.10327C216.133 5.95296 216.281 5.80264 216.429 5.65233L216.504 5.57717C216.652 5.42686 216.8 5.27654 217.023 5.12623L217.097 5.05107C217.245 4.90076 217.468 4.75045 217.616 4.67529C217.616 4.67529 217.69 4.67529 217.69 4.60013C217.839 4.44982 218.061 4.37466 218.209 4.22435C222.956 1.06775 227.852 1.21806 228 1.21806C227.926 1.21806 227.852 1.21806 227.777 1.1429C224.662 0.541648 221.399 0.391334 218.284 0.842276C218.209 0.842276 218.135 0.842276 218.061 0.842276C217.764 0.917433 217.394 0.917433 217.097 0.99259C216.874 1.06775 216.578 1.06775 216.355 1.1429C214.13 1.669 210.718 2.79636 208.567 5.50202L183.72 39.924C183.72 39.924 182.311 41.878 180.086 43.8321C180.012 43.9073 180.012 43.9073 179.938 43.9824C179.715 44.1328 179.492 44.2831 179.344 44.4334C177.49 45.8614 175.265 47.139 172.743 47.3645C169.925 47.8906 167.032 47.6651 163.991 46.7633C158.873 45.2601 155.758 42.0284 153.384 38.6463L134.249 10.9133C129.427 4.2995 122.233 0.691962 114.445 0.616805C114 0.616805 113.629 0.616805 113.184 0.691962C106.657 0.99259 100.575 3.84856 96.1249 8.95924C96.0507 9.0344 95.9766 9.18471 95.9024 9.25987L69.7944 45.8614C67.7176 48.7173 64.9733 50.6714 62.5257 51.7236C60.1522 52.7007 57.853 53.1516 56.147 53.3019V53.3771C61.1906 53.3019 73.0579 52.3249 77.434 46.162L99.9818 14.2954C100.649 13.3935 101.317 12.5668 101.984 11.8152C105.47 8.13251 109.698 6.25359 114.074 6.17843C114.222 6.17843 114.297 6.17843 114.445 6.17843C119.711 6.17843 124.755 8.73377 128.76 13.6941L148.267 42.2538C153.162 49.3938 160.802 53.5274 169.183 53.5274H169.257C177.564 53.5274 185.204 49.4689 190.099 42.4042L213.685 8.88409Z" fill="#E1D7CD"/>
<path id="Vector_2" d="M143.891 14.6711C146.264 11.3642 148.118 8.73371 149.008 7.45604C153.088 1.7441 162.211 0.917375 162.211 0.917375C146.116 -1.26218 142.185 6.40384 142.185 6.40384C142.185 6.40384 141.369 7.5312 140.034 9.41013C140.479 9.93622 140.85 10.4623 141.295 10.9884C142.111 12.1909 143.001 13.4686 143.891 14.6711Z" fill="#E1D7CD"/>
<path id="Vector_3" d="M159.541 37.4437C166.587 27.5981 178.157 11.3642 180.976 7.45604C185.055 1.7441 194.178 0.917375 194.178 0.917375C178.083 -1.26218 174.152 6.40384 174.152 6.40384C174.152 6.40384 164.065 20.3079 155.684 31.8821C156.945 33.761 158.206 35.5648 159.541 37.4437Z" fill="#E1D7CD"/>
<path id="Vector_4" d="M93.6773 46.3874C92.7872 45.1098 90.8588 42.4793 88.5595 39.1724C87.6695 40.3749 86.8536 41.6525 85.9635 42.8551C85.5927 43.3812 85.1477 43.9073 84.7026 44.4334C86.0377 46.3123 86.8536 47.4396 86.8536 47.4396C86.8536 47.4396 90.7846 55.1057 106.88 52.9261C106.88 52.9261 97.7566 52.0242 93.6773 46.3874Z" fill="#E1D7CD"/>
<path id="Vector_5" d="M125.571 46.3876C122.752 42.4794 111.181 26.2455 104.135 16.3999C102.874 18.2788 101.613 20.0826 100.353 21.9615C108.734 33.5357 118.747 47.4398 118.747 47.4398C118.747 47.4398 122.678 55.1058 138.773 52.9263C138.773 52.9263 129.65 52.0244 125.571 46.3876Z" fill="#E1D7CD"/>
<path id="Vector_6" d="M62.1548 0.917375C46.0598 -1.26218 42.1288 6.40384 42.1288 6.40384C42.1288 6.40384 19.8035 37.3686 13.944 45.4855C8.67794 52.7758 0.370852 53.377 0 53.4522C1.03839 53.4522 2.37345 53.4522 4.22772 53.4522C16.4658 53.4522 22.1028 45.1849 22.1028 45.1849C22.1028 45.1849 44.8731 13.2431 49.0267 7.5312C53.1802 1.81926 62.1548 0.917375 62.1548 0.917375Z" fill="#E1D7CD"/>
<path id="Vector_7" d="M90.933 0.917375C74.838 -1.26218 70.9069 6.40384 70.9069 6.40384C70.9069 6.40384 48.5816 37.2934 42.7222 45.4104C37.4561 52.7006 29.149 53.3019 28.7781 53.377C29.8165 53.377 31.1516 53.377 33.0059 53.377C45.244 53.377 50.8809 45.1097 50.8809 45.1097C50.8809 45.1097 73.5771 13.168 77.7306 7.45604C81.81 1.81926 90.933 0.917375 90.933 0.917375Z" fill="#E1D7CD"/>
</g>
</svg>
