<svg width="24" height="25" viewBox="0 0 24 25" fill="none" xmlns="http://www.w3.org/2000/svg">
<g id="HouseLine">
<path id="Vector" opacity="0.5" d="M22.5 20.0272H21V11.36C21 11.1524 20.957 10.9471 20.8735 10.757C20.7901 10.5669 20.6681 10.3962 20.5153 10.2557L13.0153 3.1794C13.0116 3.1762 13.0082 3.17276 13.005 3.16909C12.7289 2.91796 12.369 2.77881 11.9958 2.77881C11.6225 2.77881 11.2627 2.91796 10.9866 3.16909L10.9762 3.1794L3.48469 10.2557C3.33187 10.3962 3.20989 10.5669 3.12646 10.757C3.04303 10.9471 2.99997 11.1524 3 11.36V20.0272H1.5C1.30109 20.0272 1.11032 20.1062 0.96967 20.2469C0.829018 20.3875 0.75 20.5783 0.75 20.7772C0.75 20.9761 0.829018 21.1669 0.96967 21.3075C1.11032 21.4482 1.30109 21.5272 1.5 21.5272H22.5C22.6989 21.5272 22.8897 21.4482 23.0303 21.3075C23.171 21.1669 23.25 20.9761 23.25 20.7772C23.25 20.5783 23.171 20.3875 23.0303 20.2469C22.8897 20.1062 22.6989 20.0272 22.5 20.0272ZM4.5 11.36L4.51031 11.3507L12 4.27721L19.4906 11.3488L19.5009 11.3582V20.0272H15V15.5272C15 15.1294 14.842 14.7479 14.5607 14.4666C14.2794 14.1853 13.8978 14.0272 13.5 14.0272H10.5C10.1022 14.0272 9.72064 14.1853 9.43934 14.4666C9.15804 14.7479 9 15.1294 9 15.5272V20.0272H4.5V11.36ZM13.5 20.0272H10.5V15.5272H13.5V20.0272Z" fill="#986B3E"/>
</g>
</svg>
