<svg width="105" height="100" viewBox="0 0 105 100" fill="none" xmlns="http://www.w3.org/2000/svg">
<g id="PlayCircle">
<path id="Vector" d="M52.0833 10.1562C43.8746 10.1562 35.8503 12.493 29.025 16.8711C22.1997 21.2492 16.8801 27.472 13.7387 34.7525C10.5974 42.033 9.77547 50.0442 11.3769 57.7731C12.9783 65.5021 16.9312 72.6015 22.7356 78.1738C28.5401 83.746 35.9354 87.5408 43.9863 89.0782C52.0373 90.6155 60.3823 89.8265 67.9662 86.8108C75.55 83.7952 82.0321 78.6883 86.5926 72.136C91.1531 65.5837 93.5872 57.8803 93.5872 50C93.5743 39.4366 89.1974 29.3094 81.4167 21.8399C73.6361 14.3705 63.0869 10.1687 52.0833 10.1562ZM52.0833 85.1562C44.8404 85.1562 37.76 83.0944 31.7377 79.2314C25.7154 75.3683 21.0216 69.8777 18.2499 63.4537C15.4781 57.0298 14.7529 49.961 16.1659 43.1414C17.5789 36.3217 21.0668 30.0575 26.1883 25.1408C31.3099 20.2241 37.8351 16.8758 44.9389 15.5193C52.0427 14.1628 59.406 14.859 66.0976 17.5199C72.7892 20.1808 78.5087 24.6868 82.5327 30.4682C86.5566 36.2497 88.7044 43.0468 88.7044 50C88.6936 59.3208 84.8319 68.257 77.9665 74.8478C71.101 81.4386 61.7925 85.1459 52.0833 85.1562ZM66.4591 48.0469L46.9279 35.5469C46.56 35.3112 46.1323 35.176 45.6905 35.1555C45.2488 35.135 44.8095 35.2302 44.4197 35.4307C44.0299 35.6313 43.7041 35.9297 43.4772 36.2942C43.2504 36.6586 43.1309 37.0754 43.1315 37.5V62.5C43.1309 62.9246 43.2504 63.3414 43.4772 63.7058C43.7041 64.0703 44.0299 64.3687 44.4197 64.5693C44.8095 64.7698 45.2488 64.865 45.6905 64.8445C46.1323 64.824 46.56 64.6888 46.9279 64.4531L66.4591 51.9531C66.7949 51.7393 67.0703 51.4491 67.2608 51.1083C67.4513 50.7675 67.551 50.3868 67.551 50C67.551 49.6132 67.4513 49.2325 67.2608 48.8917C67.0703 48.5509 66.7949 48.2607 66.4591 48.0469ZM48.0143 58.1211V41.8789L60.7015 50L48.0143 58.1211Z" fill="white"/>
</g>
</svg>
