<svg width="33" height="32" viewBox="0 0 33 32" fill="none" xmlns="http://www.w3.org/2000/svg">
<g id="Star">
<path id="Vector" d="M17.04 23.8041L23.2256 27.7314C24.0233 28.2346 25.0052 27.486 24.772 26.5655L22.9801 19.5208C22.9317 19.3256 22.9394 19.1206 23.0024 18.9295C23.0653 18.7384 23.181 18.569 23.3361 18.4408L28.8834 13.8139C29.6075 13.2125 29.2393 11.9975 28.2943 11.9362L21.0533 11.4698C20.8557 11.4583 20.6658 11.3895 20.5067 11.2718C20.3476 11.1541 20.2262 10.9926 20.1574 10.807L17.4573 4.00784C17.3858 3.81136 17.2556 3.64162 17.0844 3.52168C16.9131 3.40174 16.7091 3.3374 16.5 3.3374C16.2909 3.3374 16.0869 3.40174 15.9157 3.52168C15.7444 3.64162 15.6142 3.81136 15.5427 4.00784L12.8427 10.807C12.7739 10.9926 12.6525 11.1541 12.4934 11.2718C12.3343 11.3895 12.1443 11.4583 11.9468 11.4698L4.70574 11.9362C3.76073 11.9975 3.39254 13.2125 4.11664 13.8139L9.66401 18.4408C9.81906 18.569 9.93473 18.7384 9.9977 18.9295C10.0607 19.1206 10.0684 19.3256 10.0199 19.5208L8.36308 26.05C8.0808 27.1546 9.259 28.0505 10.204 27.4491L15.96 23.8041C16.1214 23.7014 16.3087 23.6469 16.5 23.6469C16.6913 23.6469 16.8786 23.7014 17.04 23.8041Z" fill="#FDB002" stroke="#FDB002" stroke-width="2.3564" stroke-linecap="round" stroke-linejoin="round"/>
</g>
</svg>
