<svg width="33" height="32" viewBox="0 0 33 32" fill="none" xmlns="http://www.w3.org/2000/svg">
<g id="Star">
<path id="Vector" d="M16.945 23.8041L23.1306 27.7314C23.9283 28.2346 24.9101 27.486 24.677 26.5655L22.8851 19.5208C22.8367 19.3256 22.8444 19.1206 22.9073 18.9295C22.9703 18.7384 23.086 18.569 23.241 18.4408L28.7884 13.8139C29.5125 13.2125 29.1443 11.9975 28.1993 11.9362L20.9583 11.4698C20.7607 11.4583 20.5707 11.3895 20.4116 11.2718C20.2525 11.1541 20.1311 10.9926 20.0623 10.807L17.3623 4.00784C17.2908 3.81136 17.1606 3.64162 16.9894 3.52168C16.8181 3.40174 16.6141 3.3374 16.405 3.3374C16.1959 3.3374 15.9919 3.40174 15.8206 3.52168C15.6494 3.64162 15.5192 3.81136 15.4477 4.00784L12.7477 10.807C12.6789 10.9926 12.5575 11.1541 12.3984 11.2718C12.2393 11.3895 12.0493 11.4583 11.8517 11.4698L4.61071 11.9362C3.6657 11.9975 3.29751 13.2125 4.02161 13.8139L9.56898 18.4408C9.72403 18.569 9.8397 18.7384 9.90267 18.9295C9.96564 19.1206 9.97334 19.3256 9.92489 19.5208L8.26805 26.05C7.98577 27.1546 9.16397 28.0505 10.109 27.4491L15.865 23.8041C16.0264 23.7014 16.2137 23.6469 16.405 23.6469C16.5963 23.6469 16.7836 23.7014 16.945 23.8041V23.8041Z" stroke="#6DC19F" stroke-width="2.3564" stroke-linecap="round" stroke-linejoin="round"/>
<path id="Vector_2" d="M17.3623 4.00784C17.2908 3.81136 17.1606 3.64162 16.9894 3.52168C16.8181 3.40174 16.6141 3.3374 16.405 3.3374C16.1959 3.3374 15.9919 3.40174 15.8206 3.52168C15.6494 3.64162 15.5192 3.81136 15.4477 4.00784L12.7477 10.807C12.6789 10.9926 12.5575 11.1541 12.3984 11.2718C12.2393 11.3895 12.0493 11.4583 11.8517 11.4698L4.61071 11.9362C3.6657 11.9975 3.29751 13.2125 4.02161 13.8139L9.56898 18.4408C9.72403 18.569 9.8397 18.7384 9.90267 18.9295C9.96564 19.1206 9.97334 19.3256 9.92489 19.5208L8.26805 26.05C7.98577 27.1546 9.16397 28.0505 10.109 27.4491L15.865 23.8041C16.0264 23.7014 16.2137 23.6469 16.405 23.6469C16.5963 23.6469 16.7836 23.7014 16.945 23.8041L17.3623 23.9636V4.00784Z" fill="#6DC19F"/>
</g>
</svg>
