<svg width="32" height="32" viewBox="0 0 32 32" fill="none" xmlns="http://www.w3.org/2000/svg">
<g id="Star">
<path id="Vector" d="M16.4451 23.8041L22.6306 27.7314C23.4284 28.2346 24.4102 27.486 24.177 26.5655L22.3852 19.5208C22.3367 19.3256 22.3444 19.1206 22.4074 18.9295C22.4704 18.7384 22.586 18.569 22.7411 18.4408L28.2884 13.8139C29.0125 13.2125 28.6444 11.9975 27.6993 11.9362L20.4583 11.4698C20.2607 11.4583 20.0708 11.3895 19.9117 11.2718C19.7526 11.1541 19.6312 10.9926 19.5624 10.807L16.8623 4.00784C16.7909 3.81136 16.6607 3.64162 16.4894 3.52168C16.3182 3.40174 16.1141 3.3374 15.9051 3.3374C15.696 3.3374 15.492 3.40174 15.3207 3.52168C15.1494 3.64162 15.0192 3.81136 14.9478 4.00784L12.2477 10.807C12.1789 10.9926 12.0575 11.1541 11.8984 11.2718C11.7393 11.3895 11.5494 11.4583 11.3518 11.4698L4.11077 11.9362C3.16576 11.9975 2.79757 13.2125 3.52167 13.8139L9.06904 18.4408C9.22409 18.569 9.33976 18.7384 9.40273 18.9295C9.4657 19.1206 9.4734 19.3256 9.42495 19.5208L7.76811 26.05C7.48583 27.1546 8.66403 28.0505 9.60905 27.4491L15.365 23.8041C15.5265 23.7014 15.7138 23.6469 15.9051 23.6469C16.0963 23.6469 16.2837 23.7014 16.4451 23.8041V23.8041Z" stroke="#FDB002" stroke-width="2.3564" stroke-linecap="round" stroke-linejoin="round"/>
<path id="Vector_2" d="M21.5 12.5275C21.4285 12.331 16.6607 3.64162 16.4894 3.52168C16.3182 3.40174 16.1141 3.3374 15.9051 3.3374C15.696 3.3374 15.492 3.40174 15.3207 3.52168C15.1494 3.64162 15.0192 3.81136 14.9478 4.00784L12.2477 10.807C12.1789 10.9926 12.0575 11.1541 11.8984 11.2718C11.7393 11.3895 11.5494 11.4583 11.3518 11.4698L4.11077 11.9362C3.16576 11.9975 2.79757 13.2125 3.52167 13.8139L9.06904 18.4408C9.22409 18.569 9.33976 18.7384 9.40273 18.9295C9.4657 19.1206 9.4734 19.3256 9.42495 19.5208L7.76811 26.05C7.48583 27.1546 8.66403 28.0505 9.60905 27.4491L15.3651 23.8041C15.5265 23.7014 15.7138 23.6469 15.9051 23.6469C16.0963 23.6469 16.2837 23.7014 16.4451 23.8041L21.5 27.0275V12.5275Z" fill="#FDB002"/>
</g>
</svg>
