<svg width="33" height="32" viewBox="0 0 33 32" fill="none" xmlns="http://www.w3.org/2000/svg">
<g id="Star">
<path id="Vector" d="M17.1351 23.8041L23.3206 27.7314C24.1184 28.2346 25.1002 27.486 24.867 26.5655L23.0752 19.5208C23.0267 19.3256 23.0344 19.1206 23.0974 18.9295C23.1604 18.7384 23.276 18.569 23.4311 18.4408L28.9784 13.8139C29.7025 13.2125 29.3344 11.9975 28.3893 11.9362L21.1483 11.4698C20.9507 11.4583 20.7608 11.3895 20.6017 11.2718C20.4426 11.1541 20.3212 10.9926 20.2524 10.807L17.5524 4.00784C17.4809 3.81136 17.3507 3.64162 17.1794 3.52168C17.0082 3.40174 16.8041 3.3374 16.5951 3.3374C16.386 3.3374 16.182 3.40174 16.0107 3.52168C15.8394 3.64162 15.7092 3.81136 15.6378 4.00784L12.9377 10.807C12.8689 10.9926 12.7475 11.1541 12.5884 11.2718C12.4293 11.3895 12.2394 11.4583 12.0418 11.4698L4.80078 11.9362C3.85576 11.9975 3.48757 13.2125 4.21168 13.8139L9.75904 18.4408C9.91409 18.569 10.0298 18.7384 10.0927 18.9295C10.1557 19.1206 10.1634 19.3256 10.115 19.5208L8.45811 26.05C8.17583 27.1546 9.35403 28.0505 10.299 27.4491L16.0551 23.8041C16.2165 23.7014 16.4038 23.6469 16.5951 23.6469C16.7863 23.6469 16.9737 23.7014 17.1351 23.8041Z" fill="#6DC19F" stroke="#6DC19F" stroke-width="2.3564" stroke-linecap="round" stroke-linejoin="round"/>
</g>
</svg>
