<svg width="24" height="25" viewBox="0 0 24 25" fill="none" xmlns="http://www.w3.org/2000/svg">
<g id="UsersThree">
<path id="Vector" opacity="0.5" d="M22.95 14.6275C22.8712 14.6866 22.7816 14.7296 22.6861 14.754C22.5907 14.7785 22.4914 14.7839 22.3939 14.77C22.2964 14.756 22.2026 14.723 22.1179 14.6729C22.0331 14.6227 21.9591 14.5563 21.9 14.4775C21.448 13.8699 20.8596 13.3769 20.1822 13.0382C19.5048 12.6995 18.7573 12.5246 18 12.5275C17.8525 12.5275 17.7083 12.484 17.5854 12.4025C17.4625 12.3209 17.3664 12.205 17.3091 12.0691C17.2701 11.9768 17.2501 11.8777 17.2501 11.7775C17.2501 11.6774 17.2701 11.5782 17.3091 11.4859C17.3664 11.3501 17.4625 11.2341 17.5854 11.1526C17.7083 11.071 17.8525 11.0275 18 11.0275C18.4208 11.0275 18.8332 10.9094 19.1903 10.6868C19.5474 10.4641 19.8349 10.1458 20.0201 9.76792C20.2053 9.39007 20.2809 8.96784 20.2382 8.54919C20.1955 8.13055 20.0362 7.73227 19.7785 7.3996C19.5208 7.06692 19.175 6.81319 18.7803 6.66721C18.3856 6.52124 17.9579 6.48888 17.5457 6.57381C17.1336 6.65874 16.7535 6.85755 16.4487 7.14766C16.1438 7.43777 15.9265 7.80756 15.8213 8.21501C15.7966 8.31042 15.7535 8.40005 15.6942 8.47878C15.6349 8.55751 15.5608 8.62379 15.4759 8.67385C15.391 8.72391 15.2971 8.75676 15.1995 8.77052C15.1019 8.78428 15.0026 8.7787 14.9072 8.75407C14.8118 8.72945 14.7222 8.68628 14.6434 8.62701C14.5647 8.56775 14.4984 8.49356 14.4484 8.40869C14.3983 8.32381 14.3655 8.2299 14.3517 8.13233C14.3379 8.03475 14.3435 7.93542 14.3681 7.84001C14.5142 7.27499 14.79 6.75185 15.1738 6.31222C15.5576 5.87258 16.0387 5.52858 16.5788 5.30759C17.1189 5.0866 17.7032 4.99472 18.285 5.03926C18.8669 5.0838 19.4304 5.26353 19.9306 5.56415C20.4308 5.86477 20.8539 6.27798 21.1663 6.7709C21.4787 7.26383 21.6717 7.82286 21.7301 8.40352C21.7884 8.98418 21.7104 9.57044 21.5023 10.1157C21.2942 10.6609 20.9617 11.15 20.5313 11.5441C21.5511 11.9856 22.4376 12.6863 23.1028 13.5766C23.1619 13.6556 23.2048 13.7454 23.2291 13.8411C23.2534 13.9367 23.2587 14.0361 23.2445 14.1337C23.2303 14.2314 23.1969 14.3252 23.1464 14.41C23.0959 14.4947 23.0292 14.5686 22.95 14.6275ZM17.8988 20.4025C17.953 20.4879 17.9895 20.5833 18.0059 20.6831C18.0223 20.783 18.0184 20.8851 17.9943 20.9833C17.9702 21.0815 17.9265 21.1739 17.8658 21.2548C17.8052 21.3358 17.7287 21.4036 17.6412 21.4542C17.5536 21.5048 17.4567 21.5372 17.3563 21.5494C17.2558 21.5616 17.154 21.5533 17.0569 21.5252C16.9597 21.497 16.8693 21.4494 16.791 21.3854C16.7127 21.3214 16.6481 21.2421 16.6013 21.1525C16.1288 20.3525 15.4559 19.6895 14.649 19.2289C13.8421 18.7684 12.9291 18.5261 12 18.5261C11.0709 18.5261 10.1579 18.7684 9.35099 19.2289C8.54409 19.6895 7.87122 20.3525 7.39876 21.1525C7.35187 21.2421 7.28734 21.3214 7.20905 21.3854C7.13075 21.4494 7.04031 21.497 6.94316 21.5252C6.84602 21.5533 6.74417 21.5616 6.64376 21.5494C6.54334 21.5372 6.44644 21.5048 6.35886 21.4542C6.27129 21.4036 6.19486 21.3358 6.13417 21.2548C6.07349 21.1739 6.0298 21.0815 6.00573 20.9833C5.98167 20.8851 5.97772 20.783 5.99414 20.6831C6.01056 20.5833 6.04699 20.4879 6.10126 20.4025C6.82838 19.1532 7.93707 18.17 9.26438 17.5975C8.5175 17.0257 7.9686 16.2342 7.69482 15.3342C7.42105 14.4343 7.43616 13.4712 7.73805 12.5803C8.03994 11.6894 8.61342 10.9155 9.37789 10.3674C10.1423 9.81928 11.0594 9.52451 12 9.52451C12.9407 9.52451 13.8577 9.81928 14.6221 10.3674C15.3866 10.9155 15.9601 11.6894 16.262 12.5803C16.5639 13.4712 16.579 14.4343 16.3052 15.3342C16.0314 16.2342 15.4825 17.0257 14.7356 17.5975C16.063 18.17 17.1716 19.1532 17.8988 20.4025ZM12 17.0275C12.5934 17.0275 13.1734 16.8516 13.6667 16.5219C14.1601 16.1923 14.5446 15.7237 14.7716 15.1756C14.9987 14.6274 15.0581 14.0242 14.9424 13.4422C14.8266 12.8603 14.5409 12.3257 14.1213 11.9062C13.7018 11.4866 13.1672 11.2009 12.5853 11.0852C12.0033 10.9694 11.4001 11.0288 10.852 11.2559C10.3038 11.4829 9.83525 11.8675 9.5056 12.3608C9.17596 12.8541 9.00001 13.4342 9.00001 14.0275C9.00001 14.8232 9.31608 15.5862 9.87869 16.1488C10.4413 16.7114 11.2044 17.0275 12 17.0275ZM6.75001 11.7775C6.75001 11.5786 6.67099 11.3878 6.53034 11.2472C6.38969 11.1065 6.19892 11.0275 6.00001 11.0275C5.57919 11.0275 5.16682 10.9094 4.80973 10.6868C4.45264 10.4641 4.16515 10.1458 3.97991 9.76792C3.79468 9.39007 3.71912 8.96784 3.76182 8.54919C3.80452 8.13055 3.96377 7.73227 4.22149 7.3996C4.4792 7.06692 4.82504 6.81319 5.21973 6.66721C5.61442 6.52124 6.04213 6.48888 6.45429 6.57381C6.86645 6.65874 7.24653 6.85755 7.55136 7.14766C7.85619 7.43777 8.07355 7.80756 8.17876 8.21501C8.22849 8.40771 8.35273 8.57276 8.52415 8.67385C8.69557 8.77494 8.90013 8.8038 9.09282 8.75407C9.28552 8.70435 9.45057 8.58011 9.55166 8.40869C9.65276 8.23727 9.68161 8.03271 9.63188 7.84001C9.48586 7.27499 9.20999 6.75185 8.82621 6.31222C8.44243 5.87258 7.96134 5.52858 7.42122 5.30759C6.88109 5.0866 6.29685 4.99472 5.71497 5.03926C5.13309 5.0838 4.56964 5.26353 4.06944 5.56415C3.56924 5.86477 3.14611 6.27798 2.83372 6.7709C2.52132 7.26383 2.32828 7.82286 2.26995 8.40352C2.21162 8.98418 2.28962 9.57044 2.49774 10.1157C2.70586 10.6609 3.03835 11.15 3.46876 11.5441C2.44996 11.9861 1.56443 12.6867 0.90001 13.5766C0.780538 13.7357 0.729174 13.9358 0.757216 14.1328C0.785259 14.3298 0.890411 14.5076 1.04954 14.627C1.20867 14.7465 1.40874 14.7979 1.60574 14.7698C1.80275 14.7418 1.98054 14.6366 2.10001 14.4775C2.55206 13.8699 3.14046 13.3769 3.81785 13.0382C4.49523 12.6995 5.24268 12.5246 6.00001 12.5275C6.19892 12.5275 6.38969 12.4485 6.53034 12.3078C6.67099 12.1672 6.75001 11.9764 6.75001 11.7775Z" fill="#986B3E"/>
</g>
</svg>
