<svg width="24" height="18" viewBox="0 0 24 18" fill="none" xmlns="http://www.w3.org/2000/svg">
<path id="Vector" d="M23.9375 9C23.9375 9.24864 23.8387 9.4871 23.6629 9.66291C23.4871 9.83873 23.2486 9.9375 23 9.9375H1C0.751359 9.9375 0.512903 9.83873 0.337088 9.66291C0.161272 9.4871 0.0625 9.24864 0.0625 9C0.0625 8.75136 0.161272 8.5129 0.337088 8.33709C0.512903 8.16127 0.75136 8.0625 1 8.0625H23C23.2486 8.0625 23.4871 8.16127 23.6629 8.33709C23.8387 8.5129 23.9375 8.75136 23.9375 9ZM23 1.9375H1C0.75136 1.9375 0.512903 1.83873 0.337088 1.66291C0.161272 1.4871 0.0625 1.24864 0.0625 1C0.0625 0.75136 0.161272 0.512903 0.337088 0.337088C0.512903 0.161272 0.75136 0.0625 1 0.0625H23C23.2486 0.0625 23.4871 0.161272 23.6629 0.337088C23.8387 0.512903 23.9375 0.751359 23.9375 1C23.9375 1.24864 23.8387 1.4871 23.6629 1.66291C23.4871 1.83873 23.2486 1.9375 23 1.9375ZM1 16.0625H23C23.2486 16.0625 23.4871 16.1613 23.6629 16.3371C23.8387 16.5129 23.9375 16.7514 23.9375 17C23.9375 17.2486 23.8387 17.4871 23.6629 17.6629C23.4871 17.8387 23.2486 17.9375 23 17.9375H1C0.751359 17.9375 0.512903 17.8387 0.337088 17.6629C0.161272 17.4871 0.0625 17.2486 0.0625 17C0.0625 16.7514 0.161272 16.5129 0.337088 16.3371C0.512903 16.1613 0.751359 16.0625 1 16.0625Z" fill="#1C1B1B" stroke="#986B3E" stroke-width="0.125"/>
</svg>
